<?xml version="1.0" standalone="no"?>
<!DOCTYPE svg PUBLIC "-//W3C//DTD SVG 20010904//EN"
 "http://www.w3.org/TR/2001/REC-SVG-20010904/DTD/svg10.dtd">
<svg version="1.0" xmlns="http://www.w3.org/2000/svg"
 width="1000.000000pt" height="1000.000000pt" viewBox="0 0 1000.000000 1000.000000"
 preserveAspectRatio="xMidYMid meet">
<metadata>
Created by potrace 1.14, written by Peter Selinger 2001-2017
</metadata>
<g transform="translate(0.000000,1000.000000) scale(0.100000,-0.100000)"
fill="#000000" stroke="none">
<path d="M2414 8309 c-25 -7 -33 -16 -36 -40 -6 -38 5 -42 61 -26 34 11 45 19
48 37 5 37 -16 46 -73 29z"/>
<path d="M2653 8253 c-31 -11 1 -49 55 -65 32 -9 71 27 51 47 -14 14 -84 26
-106 18z"/>
<path d="M2406 8211 c-4 -5 -3 -17 0 -26 6 -15 8 -15 25 1 10 9 16 21 13 25
-7 12 -31 11 -38 0z"/>
<path d="M2610 8202 c0 -5 9 -17 20 -27 17 -16 20 -16 26 -2 3 9 3 21 -1 27
-7 12 -45 14 -45 2z"/>
<path d="M2342 8186 c-13 -6 -26 -22 -29 -35 -8 -32 -36 -59 -65 -63 -18 -2
-22 -9 -20 -27 3 -34 21 -54 37 -41 12 10 25 4 25 -12 0 -4 -5 -7 -12 -5 -7 1
-12 -5 -13 -13 -1 -20 -43 -15 -67 7 -22 19 -26 16 -34 -24 -5 -25 -2 -31 15
-36 38 -10 19 -34 -21 -28 -4 0 -12 -8 -17 -18 -8 -14 -7 -22 4 -31 8 -7 15
-9 15 -6 0 4 7 0 16 -9 9 -9 22 -14 30 -11 7 3 19 -5 27 -17 15 -23 50 -29 75
-13 7 4 12 5 12 2 0 -3 14 8 31 24 24 21 37 27 53 21 49 -17 82 23 47 58 -12
12 -15 24 -10 39 6 17 2 26 -21 42 -27 19 -31 20 -36 5 -7 -18 -42 -17 -61 2
-22 20 -14 24 13 7 25 -17 26 -16 52 10 21 21 24 28 13 35 -7 5 -11 13 -7 19
3 6 0 12 -6 15 -7 2 -10 7 -7 11 3 3 18 -3 33 -15 17 -13 35 -19 48 -16 12 3
34 -1 50 -9 28 -14 48 -12 48 6 0 18 -40 32 -55 20 -9 -7 -15 -8 -20 0 -3 5
-3 10 1 10 4 0 -1 9 -10 19 -10 11 -24 17 -32 14 -8 -3 -14 1 -14 10 0 9 -9
19 -20 22 -11 3 -20 12 -20 20 0 18 -21 23 -48 11z m13 -76 c3 -5 1 -10 -4
-10 -6 0 -11 5 -11 10 0 6 2 10 4 10 3 0 8 -4 11 -10z"/>
<path d="M2150 8086 c0 -7 7 -19 15 -26 12 -10 15 -9 15 8 0 11 -7 22 -15 26
-9 3 -15 0 -15 -8z"/>
<path d="M4713 8072 c-16 -2 -23 -10 -23 -27 0 -21 -12 -37 -30 -41 -28 -6
-82 -38 -87 -52 -3 -9 -13 -25 -21 -34 -8 -10 -12 -18 -8 -18 4 0 2 -10 -5
-21 -9 -17 -8 -24 3 -30 21 -12 11 -79 -12 -79 -11 0 -29 -18 -44 -44 -32 -55
-32 -56 -1 -56 20 0 25 -5 25 -25 0 -16 6 -25 16 -25 9 0 32 -14 52 -31 31
-27 32 -30 11 -24 -13 4 -28 11 -34 16 -5 5 -17 9 -27 9 -10 0 -18 3 -18 8 0
4 -18 7 -40 7 -26 0 -40 -4 -40 -12 0 -7 4 -13 9 -13 4 0 7 -16 5 -35 -2 -32
0 -35 32 -41 36 -7 41 -13 22 -32 -9 -9 -6 -14 13 -20 13 -5 31 -7 39 -4 26 9
62 46 75 76 12 28 13 29 20 7 5 -16 1 -27 -13 -39 -10 -9 -22 -27 -26 -39 -4
-13 -15 -23 -25 -23 -25 0 -33 -11 -20 -27 6 -7 10 -13 8 -14 -53 -8 -79 -6
-90 7 -7 8 -21 20 -31 25 -35 19 -19 -15 20 -42 45 -32 88 -41 103 -23 23 28
78 13 73 -19 -1 -10 4 -30 12 -45 8 -15 14 -32 14 -39 0 -16 22 -22 43 -11 12
6 17 5 15 -3 -2 -8 13 -16 36 -20 21 -3 43 -14 48 -23 20 -36 80 -52 138 -36
60 16 79 72 43 127 -13 19 -14 28 -5 31 7 2 12 22 12 46 0 29 7 52 21 70 17
22 18 27 6 32 -9 3 -13 13 -10 24 3 11 -7 39 -23 65 -27 43 -31 45 -66 41 -21
-3 -38 -1 -38 4 0 19 -33 48 -48 42 -14 -5 -13 -2 1 18 12 17 13 28 6 42 -6
11 -8 22 -5 25 3 4 1 12 -5 19 -15 18 -3 49 26 68 34 23 31 49 -9 83 -22 18
-44 52 -62 96 -29 71 -44 86 -81 79z m107 -436 c0 -2 -9 -6 -20 -9 -11 -3 -18
-1 -14 4 5 9 34 13 34 5z m-148 -48 c-7 -7 -12 -8 -12 -2 0 14 12 26 19 19 2
-3 -1 -11 -7 -17z m228 -23 c0 -8 -4 -15 -10 -15 -5 0 -7 7 -4 15 4 8 8 15 10
15 2 0 4 -7 4 -15z"/>
<path d="M2449 8040 c-18 -12 -10 -18 31 -26 24 -5 32 -4 28 6 -6 18 -42 30
-59 20z"/>
<path d="M2785 8029 c-11 -11 -19 -32 -20 -47 0 -23 -5 -27 -32 -30 -18 -2
-33 -7 -33 -11 0 -4 -8 -16 -17 -28 -15 -19 -19 -19 -39 -7 -18 12 -25 12 -50
-1 -18 -9 -42 -12 -64 -9 -33 5 -37 3 -53 -30 -35 -75 -16 -138 44 -141 19 -1
41 -5 49 -9 11 -5 26 7 50 41 19 27 35 53 35 58 1 6 6 19 12 30 11 19 12 18
24 -7 9 -20 16 -25 28 -19 9 5 32 11 52 15 22 4 47 18 63 36 14 17 23 30 20
30 -4 0 -2 6 4 13 5 6 8 23 7 37 -2 14 -4 30 -4 37 -1 10 -47 63 -55 63 -2 0
-11 -9 -21 -21z"/>
<path d="M4380 8035 c-21 -25 -7 -48 37 -61 37 -11 45 -10 58 3 19 19 16 55
-5 59 -8 1 -29 5 -46 8 -21 4 -36 1 -44 -9z"/>
<path d="M1912 8014 c-10 -18 -4 -64 9 -64 4 0 17 10 28 21 15 17 18 26 10 40
-12 23 -35 24 -47 3z"/>
<path d="M2570 8002 c-22 -7 -60 -43 -60 -57 0 -12 41 -35 62 -35 27 0 77 88
51 91 -5 0 -15 2 -23 3 -8 2 -22 1 -30 -2z"/>
<path d="M3700 7931 c-11 -21 -13 -54 -5 -63 3 -3 25 -1 49 5 32 7 46 16 50
31 11 42 -73 66 -94 27z"/>
<path d="M1856 7895 c-33 -30 -40 -33 -50 -20 -15 20 -100 25 -101 6 0 -8 -25
-23 -55 -35 -73 -28 -100 -45 -81 -53 7 -3 21 -13 30 -22 10 -10 23 -15 31
-13 7 3 10 0 7 -6 -4 -5 0 -15 7 -21 11 -10 21 -6 45 18 18 17 36 31 40 31 5
0 12 12 16 27 3 15 9 23 13 17 11 -15 61 -34 67 -25 3 5 3 17 0 28 -4 11 -1
10 6 -4 9 -18 9 -26 -1 -38 -10 -12 -15 -13 -21 -4 -5 10 -14 9 -38 0 -38 -16
-62 -42 -43 -48 6 -3 12 -11 12 -19 0 -11 -4 -13 -17 -6 -12 7 -22 5 -35 -8
-17 -16 -18 -21 -6 -41 17 -31 28 -38 45 -32 9 3 13 -3 13 -21 0 -24 2 -25 20
-16 11 6 25 8 30 5 6 -4 13 1 16 9 3 9 12 16 19 16 21 0 26 31 9 57 -15 24
-15 25 12 21 22 -2 31 3 44 27 10 17 27 32 42 35 23 5 78 58 78 76 0 17 -33
42 -48 37 -13 -4 -14 -3 -3 5 21 15 -2 47 -36 50 -20 1 -39 -9 -67 -33z"/>
<path d="M2129 7808 c0 -2 -2 -17 -4 -35 -4 -35 21 -65 58 -69 12 -1 23 -3 25
-3 1 -1 -2 -11 -9 -22 -15 -28 8 -45 32 -23 21 19 29 18 29 -6 0 -11 -4 -20
-10 -20 -17 0 -11 -28 8 -34 45 -14 72 -14 83 0 7 8 20 12 30 9 26 -9 63 28
56 54 -3 12 0 21 6 22 7 1 18 2 26 3 8 0 16 6 18 11 4 13 -33 55 -50 56 -104
9 -109 8 -103 -17 4 -13 3 -23 -1 -22 -5 1 -23 -1 -41 -5 -23 -5 -31 -11 -26
-19 6 -9 3 -9 -9 1 -9 7 -17 19 -17 27 0 21 -22 64 -30 59 -4 -3 -18 4 -30 15
-20 18 -38 25 -41 18z"/>
<path d="M2055 7711 c-3 -11 -12 -22 -20 -25 -22 -8 -18 -34 6 -46 35 -19 66
-21 79 -5 10 12 15 13 21 4 10 -17 39 7 39 32 0 15 -7 19 -35 19 -28 0 -35 4
-35 20 0 27 -46 28 -55 1z"/>
<path d="M1866 7648 c-14 -20 -14 -24 4 -43 11 -12 20 -28 20 -36 0 -16 74
-41 96 -32 14 5 2 45 -23 73 -11 12 -15 11 -29 -8 -23 -33 -36 -26 -21 11 11
24 11 35 3 42 -20 17 -35 15 -50 -7z"/>
<path d="M1055 7640 c-10 -16 7 -31 23 -21 10 6 10 10 -2 20 -10 9 -16 9 -21
1z"/>
<path d="M2505 7640 c-8 -14 3 -30 21 -30 16 0 16 2 8 24 -7 18 -20 21 -29 6z"/>
<path d="M2451 7601 c-18 -17 -37 -31 -42 -31 -16 0 -9 -29 9 -34 22 -7 38 -4
34 8 -2 5 3 4 11 -2 10 -9 19 -8 35 4 27 18 28 35 4 64 l-18 22 -33 -31z"/>
<path d="M3510 7442 c0 -30 43 -63 78 -60 44 3 41 28 -8 56 -47 27 -70 28 -70
4z"/>
<path d="M5140 7375 c0 -7 -10 -15 -22 -17 -13 -2 -23 -10 -23 -18 0 -8 -5
-21 -12 -27 -6 -7 -17 -39 -24 -70 -7 -32 -18 -65 -26 -74 -7 -9 -15 -31 -18
-48 -7 -57 -17 -95 -33 -126 -8 -16 -19 -38 -24 -48 -5 -11 -4 -25 3 -38 14
-28 53 -18 96 24 26 25 42 31 80 33 27 1 59 6 73 12 14 5 28 8 31 6 4 -2 12 3
19 11 7 8 21 15 31 15 17 0 72 67 65 79 -2 3 -7 23 -10 45 -7 46 -13 56 -30
56 -8 0 -17 8 -20 18 -8 22 -28 55 -45 76 -13 15 -16 15 -38 -5 l-23 -22 0 21
c0 11 5 24 10 27 16 10 12 40 -7 57 -27 23 -53 30 -53 13z"/>
<path d="M4510 7272 c0 -14 39 -32 46 -21 4 6 0 15 -7 20 -17 11 -39 12 -39 1z"/>
<path d="M5385 7010 c-18 -20 -18 -21 4 -43 27 -30 87 -50 99 -33 19 25 7 41
-32 44 -24 2 -35 7 -28 11 15 9 5 41 -13 41 -6 0 -20 -9 -30 -20z"/>
<path d="M4604 6979 c-8 -14 11 -33 25 -25 11 7 4 36 -9 36 -5 0 -12 -5 -16
-11z"/>
<path d="M5240 6834 c-7 -8 -19 -13 -26 -10 -7 3 -19 -5 -27 -17 -8 -12 -23
-31 -34 -42 -59 -63 -106 -152 -98 -184 13 -52 13 -60 0 -71 -18 -15 -74 -19
-99 -7 -37 18 -39 -39 -2 -66 6 -5 1 -6 -11 -2 -12 3 -24 1 -28 -5 -8 -13 -52
-33 -78 -35 -10 -2 -23 -7 -30 -14 -15 -15 -27 -14 -21 3 3 8 14 16 25 19 13
3 19 14 19 31 0 22 -4 26 -30 26 -16 0 -30 -4 -30 -10 0 -5 -6 -7 -14 -4 -8 3
-24 1 -35 -6 -14 -7 -21 -7 -21 -1 0 7 -9 7 -25 -1 -14 -6 -25 -17 -25 -24 0
-7 -8 -13 -17 -13 -48 -2 -60 -6 -80 -30 -19 -22 -20 -27 -8 -34 22 -12 11
-24 -30 -31 -19 -4 -35 -11 -35 -16 0 -5 -8 -7 -18 -5 -10 2 -40 -7 -67 -20
-27 -13 -52 -22 -55 -20 -7 4 -33 -22 -63 -65 -13 -19 -26 -25 -55 -25 -33 0
-37 -3 -35 -23 2 -13 -1 -21 -6 -17 -11 6 -41 -21 -41 -38 0 -7 -14 -12 -32
-12 -17 0 -33 -6 -35 -12 -3 -8 4 -13 16 -13 28 0 27 -16 -1 -25 -13 -4 -26
-8 -30 -10 -5 -1 -12 -3 -18 -4 -13 -1 -13 -28 0 -36 5 -3 19 -1 30 5 25 14
62 -3 54 -25 -5 -11 1 -15 19 -15 17 0 27 -7 32 -22 13 -37 11 -41 -15 -45
-14 -2 -37 -12 -51 -22 -16 -12 -31 -16 -39 -11 -8 5 -22 4 -34 -2 -11 -6 -55
-12 -99 -15 -43 -2 -89 -9 -101 -15 -11 -6 -22 -11 -23 -10 -2 1 -10 2 -19 2
-11 0 -14 -6 -9 -20 4 -12 2 -20 -4 -20 -18 0 -9 -63 11 -86 15 -17 16 -25 6
-51 -16 -42 13 -91 62 -107 24 -8 34 -17 32 -29 -2 -9 1 -17 6 -17 5 0 12 -10
15 -22 6 -22 -6 -38 -31 -38 -14 0 -57 46 -57 62 0 6 -16 20 -35 31 -19 10
-38 24 -42 31 -7 11 -13 13 -54 15 -12 1 -24 9 -27 21 -7 28 -57 38 -73 14 -7
-10 -18 -24 -24 -31 -15 -18 -12 -43 5 -43 8 0 15 -9 15 -20 0 -15 7 -20 25
-20 16 0 25 -6 25 -15 0 -21 -24 -19 -46 6 -13 15 -25 18 -44 14 -40 -11 -49
-23 -40 -56 5 -16 6 -29 2 -29 -4 0 5 -11 20 -25 15 -14 32 -25 38 -25 5 0 10
-4 10 -9 0 -5 8 -12 18 -14 9 -3 4 -5 -13 -6 -16 0 -47 4 -67 9 -34 10 -37 13
-32 39 4 16 2 37 -4 47 -7 12 -5 27 4 51 8 18 14 35 14 38 0 3 1 8 1 13 5 31
3 82 -3 82 -5 0 -8 8 -8 18 0 20 -35 54 -46 44 -4 -4 -4 5 -1 19 6 21 3 28
-13 32 -29 7 -53 -19 -40 -44 6 -10 15 -19 21 -19 14 0 31 -48 35 -95 3 -45
-18 -75 -67 -95 -16 -7 -29 -19 -29 -27 0 -8 -8 -31 -17 -50 -15 -32 -15 -37
-1 -47 16 -12 52 -86 41 -86 -3 0 1 -7 8 -16 21 -25 20 -46 -4 -89 -22 -40
-24 -64 -13 -173 2 -24 7 -46 10 -49 11 -12 88 -6 96 7 9 14 66 5 76 -13 4 -7
4 -9 0 -5 -4 3 -22 2 -39 -3 -18 -6 -41 -12 -51 -14 -47 -11 -64 -63 -40 -121
17 -41 18 -80 2 -91 -21 -13 -38 -39 -43 -64 -7 -36 -27 -69 -42 -69 -7 0 -13
-4 -13 -10 0 -5 -7 -10 -15 -10 -17 0 -34 -30 -27 -49 3 -11 -1 -12 -19 -7
-13 4 -30 8 -36 8 -21 2 -15 25 7 31 11 3 20 13 20 22 0 9 11 33 25 53 14 20
25 44 25 53 0 9 10 23 22 31 16 11 22 26 23 61 1 27 9 55 19 65 22 25 21 29
-19 66 -21 20 -35 43 -35 57 0 13 0 53 0 89 0 36 0 81 -1 100 -1 19 1 42 5 50
22 54 6 140 -34 180 -20 20 -20 23 -6 39 9 9 17 26 19 37 2 10 7 26 10 34 21
57 26 104 18 172 -1 5 -21 17 -45 28 -33 16 -57 20 -97 16 l-54 -4 35 15 c47
20 68 24 75 12 14 -22 26 -7 20 24 -11 49 -43 88 -68 84 -42 -7 -57 -19 -57
-46 0 -38 -11 -72 -21 -65 -5 2 -16 -12 -25 -33 -19 -42 -21 -51 -29 -108 -15
-105 -25 -127 -73 -174 -72 -69 -98 -173 -53 -211 24 -21 33 -57 15 -64 -15
-6 -19 -62 -8 -103 7 -26 44 -32 44 -8 0 9 6 12 15 9 9 -4 15 -19 15 -35 0
-16 5 -29 10 -29 6 0 10 -7 10 -15 0 -8 9 -19 19 -25 16 -8 18 -15 11 -41 -5
-18 -12 -34 -15 -37 -8 -8 -65 49 -59 59 2 4 -13 16 -33 25 -21 10 -48 26 -60
37 -13 11 -23 17 -23 13 0 -4 -20 10 -44 31 -44 39 -115 70 -176 78 -82 10
-95 17 -144 76 -48 57 -49 58 -71 41 -15 -11 -22 -26 -21 -43 2 -32 32 -79 49
-79 19 0 67 -60 74 -91 3 -16 12 -34 19 -40 12 -10 12 -15 -2 -30 -10 -11 -25
-19 -35 -19 -23 0 -34 -17 -20 -34 9 -10 8 -15 -5 -20 -8 -3 -18 -6 -20 -6 -9
0 -3 37 8 48 8 8 8 15 -2 27 -7 8 -9 15 -4 15 4 0 3 5 -3 11 -16 16 -74 -5
-108 -41 -15 -16 -32 -27 -37 -24 -35 22 -119 1 -132 -32 -9 -22 -43 -17 -50
9 -9 33 -7 49 4 42 5 -3 15 -3 21 1 8 4 7 9 -2 15 -11 7 -10 9 4 9 20 0 23 26
3 33 -7 3 -19 0 -25 -6 -6 -6 -11 -8 -11 -4 0 11 -72 -28 -98 -53 -13 -13 -38
-24 -55 -25 -18 -1 -39 -12 -51 -26 -39 -45 -95 -82 -117 -76 -15 4 -19 1 -17
-11 2 -11 -6 -21 -23 -28 -22 -10 -27 -20 -33 -63 -7 -55 -21 -69 -69 -69 -18
0 -32 8 -39 22 -6 11 -19 27 -30 34 -10 7 -18 18 -18 23 0 20 36 47 73 53 37
7 38 8 31 39 -7 32 -44 85 -71 101 -8 4 -31 8 -51 7 -21 0 -49 5 -64 10 -45
18 -52 6 -19 -30 30 -32 36 -45 31 -66 -1 -5 -3 -26 -5 -45 -2 -19 -8 -48 -15
-64 -10 -27 -8 -32 15 -54 26 -24 28 -37 10 -105 -7 -28 -8 -28 -29 -9 -11 11
-29 18 -38 17 -10 -2 -20 1 -24 6 -11 18 -33 9 -50 -20 -10 -16 -29 -35 -43
-43 -14 -7 -42 -29 -62 -48 -39 -38 -42 -63 -13 -108 15 -23 15 -26 -4 -44
-19 -20 -20 -20 -61 1 -22 12 -41 18 -41 14 0 -5 -6 -1 -13 7 -7 8 -22 23 -33
33 -20 17 -22 16 -48 -8 -29 -26 -30 -48 -6 -78 30 -38 41 -46 54 -41 19 7 30
-27 13 -43 -21 -21 -72 2 -91 41 -13 28 -20 32 -41 28 -24 -4 -30 3 -26 34 1
6 -6 30 -14 53 -13 37 -13 47 -1 76 13 29 12 36 -4 63 -11 17 -30 38 -44 48
-14 9 -24 20 -21 24 3 5 1 11 -5 15 -21 13 -9 24 15 13 14 -6 25 -15 25 -20 0
-5 4 -6 10 -3 5 3 22 -1 37 -9 38 -20 63 -28 98 -33 16 -3 35 -9 41 -14 6 -5
19 -10 30 -12 10 -1 24 -5 29 -9 14 -8 107 28 131 52 34 34 45 50 58 83 13 34
14 42 2 68 -4 9 -8 27 -9 40 -2 25 -97 132 -97 109 0 -12 -15 0 -99 78 -71 67
-161 123 -183 116 -12 -3 -27 1 -38 11 -10 9 -24 15 -32 14 -29 -6 -55 11 -51
34 3 17 -5 27 -38 46 -34 19 -43 20 -50 10 -5 -8 -9 -18 -9 -22 0 -5 -14 -5
-31 -2 -29 7 -31 5 -26 -14 3 -11 1 -24 -4 -27 -5 -3 -9 0 -9 5 0 19 -20 12
-28 -10 -4 -11 -19 -26 -32 -32 -14 -7 -25 -19 -25 -26 0 -7 -13 -24 -30 -37
-23 -19 -27 -26 -16 -33 10 -7 11 -13 2 -30 -16 -28 -1 -83 25 -95 11 -5 29
-25 41 -45 l20 -35 -31 -56 c-30 -57 -30 -57 -13 -96 45 -104 51 -131 35 -151
-15 -18 -14 -133 1 -142 6 -4 11 -12 10 -17 -5 -15 12 -54 22 -54 14 0 11 -28
-8 -56 -16 -26 -16 -26 30 -71 26 -25 47 -51 47 -58 0 -22 -17 -59 -37 -80
-10 -11 -31 -39 -47 -63 -16 -23 -53 -67 -81 -97 -65 -67 -73 -85 -40 -85 15
0 25 -6 25 -14 0 -8 9 -18 20 -21 38 -12 23 -31 -30 -38 -21 -3 -25 -9 -25
-38 0 -19 -5 -41 -10 -49 -5 -7 -8 -31 -6 -51 1 -21 -2 -40 -7 -43 -5 -3 -7
-16 -5 -30 3 -13 0 -34 -7 -46 -9 -18 -9 -25 5 -40 11 -12 14 -26 10 -40 -4
-14 -1 -28 9 -39 13 -14 22 -39 25 -73 1 -8 42 -23 57 -20 7 1 14 -8 17 -20 5
-18 9 -20 19 -10 26 26 82 2 63 -28 -3 -5 -1 -11 5 -15 5 -3 8 -16 4 -29 -5
-23 30 -96 47 -96 5 0 9 -9 9 -20 0 -13 7 -20 19 -20 19 0 35 -25 26 -41 -3
-4 -19 -6 -35 -2 -40 7 -45 -11 -25 -81 12 -42 21 -56 35 -56 10 0 22 5 25 10
3 6 17 10 31 10 13 0 24 4 24 9 0 16 40 -1 42 -18 1 -9 2 -23 4 -31 1 -8 2
-25 3 -37 1 -15 7 -23 19 -23 23 0 52 -21 56 -40 7 -35 19 -51 34 -45 8 3 19
0 23 -7 6 -10 15 -10 39 -1 27 10 32 9 50 -14 13 -17 26 -24 40 -20 11 3 23 1
26 -4 3 -5 12 -9 21 -9 8 0 26 -9 39 -19 21 -17 23 -21 10 -34 -9 -9 -14 -32
-13 -63 2 -43 -1 -49 -18 -49 -33 -1 -75 -35 -75 -61 0 -16 6 -24 17 -24 14 0
13 -3 -5 -16 -12 -8 -27 -12 -32 -9 -6 4 -9 -3 -7 -16 2 -13 9 -25 15 -27 8
-2 6 -13 -8 -32 -11 -15 -20 -33 -20 -39 0 -9 -6 -9 -20 -1 -16 8 -21 6 -31
-12 -9 -17 -9 -23 1 -26 8 -3 23 -15 35 -28 12 -13 30 -24 39 -24 9 0 16 -4
16 -10 0 -5 7 -10 16 -10 9 0 34 -18 55 -40 28 -28 45 -39 61 -36 13 2 38 -3
57 -10 18 -8 46 -14 62 -14 16 0 48 -12 72 -27 23 -15 47 -26 52 -24 22 8 65
7 65 -1 0 -4 7 -8 15 -8 8 0 12 -6 9 -14 -3 -9 6 -17 25 -24 17 -6 42 -22 56
-36 39 -39 61 -41 90 -10 31 34 31 39 -5 93 -30 44 -40 104 -20 116 18 11 11
27 -10 22 -13 -3 -20 0 -20 9 0 8 -7 17 -15 20 -13 5 -12 10 5 34 11 15 20 34
20 40 0 7 8 10 20 7 14 -4 20 0 20 11 0 10 14 25 30 34 33 19 51 49 32 56 -7
2 -9 8 -6 14 13 20 -50 120 -70 112 -8 -3 -20 2 -27 11 -8 9 -22 25 -31 36
-22 23 -22 33 -4 48 10 8 13 23 9 47 -4 24 -1 40 11 53 9 9 13 21 9 24 -3 4
-1 7 4 7 6 0 20 -11 30 -25 13 -18 24 -23 41 -19 19 5 22 12 19 37 -2 25 4 37
32 64 19 18 41 33 48 33 7 0 17 9 23 20 11 21 40 28 40 10 0 -15 38 -12 43 3
3 9 9 9 29 -1 13 -8 31 -12 39 -10 16 3 81 -51 74 -62 -7 -12 23 -33 35 -25 6
3 8 11 5 16 -10 15 7 10 27 -8 13 -12 23 -14 32 -8 64 47 68 49 88 36 15 -9
23 -10 31 -2 13 13 47 15 47 2 0 -5 15 -18 34 -29 29 -17 37 -18 53 -8 10 7
27 12 38 10 33 -6 54 6 71 39 16 30 16 31 -12 54 -16 13 -34 23 -40 23 -7 0
-14 7 -18 15 -3 9 0 15 9 15 21 0 39 38 26 54 -16 19 9 37 41 31 36 -7 47 14
20 36 -12 9 -22 24 -22 33 0 9 -7 16 -16 16 -8 0 -12 5 -8 11 3 6 22 9 43 7
23 -3 47 2 67 14 17 10 38 16 46 13 8 -3 20 0 26 8 7 9 23 12 38 9 16 -3 29 1
35 9 4 7 32 19 61 26 29 7 61 15 71 18 41 10 57 17 57 24 0 5 13 14 29 21 25
10 35 9 60 -3 20 -10 33 -11 40 -4 7 7 12 5 16 -9 4 -10 10 -26 14 -34 5 -8 3
-23 -3 -33 -15 -24 15 -47 53 -41 20 3 30 0 35 -11 4 -12 10 -13 25 -6 21 12
32 5 24 -15 -8 -21 17 -47 32 -34 7 6 20 8 28 4 9 -3 25 3 36 13 11 11 38 29
59 41 l39 22 13 -25 c7 -14 17 -25 21 -25 22 0 81 -81 134 -184 44 -84 65
-116 78 -116 11 0 21 9 24 20 6 21 23 28 23 9 0 -35 83 -51 129 -25 21 12 27
11 41 -3 10 -9 20 -25 24 -36 3 -11 16 -25 28 -30 13 -6 22 -16 21 -22 -4 -19
27 -37 68 -39 25 -1 49 -10 63 -23 18 -17 30 -20 51 -15 14 4 29 12 31 18 2 6
18 11 35 12 21 1 41 12 66 38 19 20 39 36 44 36 5 0 26 11 47 24 26 16 48 22
72 19 19 -2 48 -5 65 -6 21 -2 34 -10 43 -29 12 -26 48 -37 112 -37 17 0 34
-4 68 -15 17 -6 27 -3 37 11 8 10 15 14 15 9 0 -6 7 -1 15 10 16 21 20 64 6
64 -17 0 -18 49 -2 73 36 53 45 58 82 38 19 -10 40 -16 46 -14 7 3 23 -3 35
-11 12 -9 32 -16 45 -16 18 0 23 -7 29 -45 6 -40 11 -48 43 -61 49 -21 81 -26
95 -16 31 26 155 20 164 -7 2 -6 10 -11 18 -11 8 0 28 -15 45 -32 18 -20 40
-33 57 -35 15 0 48 -5 73 -11 33 -6 53 -5 70 3 13 7 44 16 69 20 29 5 53 17
71 36 33 35 74 47 97 27 23 -20 50 -29 57 -18 7 11 25 8 55 -12 43 -27 70 -31
90 -13 10 9 34 24 52 33 24 12 32 23 30 38 -3 25 31 104 62 141 29 35 33 90 6
98 -18 6 -18 7 2 30 20 23 39 29 128 41 25 3 47 8 49 10 2 2 17 -6 33 -17 16
-12 40 -22 54 -24 28 -3 66 -33 58 -46 -3 -5 -1 -9 4 -9 5 0 13 -10 17 -22 4
-13 8 -25 9 -28 1 -3 8 -25 16 -50 8 -25 19 -54 26 -65 7 -11 16 -42 19 -68 7
-48 36 -81 67 -76 18 3 69 -19 90 -39 9 -9 24 -23 33 -30 8 -7 15 -25 15 -40
1 -45 21 -62 75 -62 31 0 55 6 67 17 16 14 80 42 98 43 12 0 3 -62 -10 -70 -8
-5 -15 -13 -15 -17 -4 -55 -48 -163 -82 -201 -7 -7 -13 -19 -13 -25 -1 -7 -7
3 -15 21 -16 36 -26 39 -49 17 -8 -8 -19 -15 -25 -15 -6 0 -8 -32 -4 -90 5
-73 3 -90 -8 -90 -30 0 -42 -16 -30 -39 15 -27 29 -27 55 2 23 25 56 41 56 28
0 -12 69 -31 76 -20 3 5 12 9 20 9 13 0 62 30 89 55 6 6 20 23 30 39 23 35 50
68 88 108 15 16 27 32 27 34 0 3 9 15 20 27 11 12 32 44 45 72 34 70 63 116
90 145 27 30 47 115 49 216 1 43 7 78 15 88 7 9 10 16 6 16 -5 0 0 9 10 20 17
19 18 19 37 -17 14 -26 17 -42 11 -53 -6 -8 -8 -24 -6 -35 2 -11 3 -45 2 -75
-3 -57 -3 -130 -1 -165 1 -11 -1 -42 -4 -70 -6 -57 -7 -80 -5 -113 1 -32 33
-25 41 8 8 33 50 42 50 11 0 -25 15 -27 28 -5 10 19 4 54 -9 54 -5 0 -15 15
-23 34 -8 18 -19 36 -24 40 -7 4 -4 29 9 74 10 37 19 68 19 69 0 2 10 3 21 3
12 0 32 -12 44 -26 27 -31 43 -16 21 18 -8 13 -17 36 -20 53 -3 16 -10 41 -15
55 -5 14 -13 43 -17 65 -4 22 -9 46 -11 52 -1 7 -4 19 -6 25 -1 7 -6 18 -10
25 -4 6 -3 22 1 35 11 29 7 102 -9 139 -6 16 -9 35 -6 43 3 8 -2 25 -11 37
-16 18 -19 19 -30 6 -9 -10 -10 -22 -3 -40 9 -23 7 -28 -20 -44 -18 -11 -27
-23 -24 -32 5 -12 3 -12 -12 0 -34 26 -63 60 -63 73 0 15 -57 42 -67 33 -3 -4
-14 -2 -25 4 -16 9 -20 7 -25 -10 -3 -12 -9 -21 -13 -21 -5 0 -12 -9 -15 -20
-8 -26 -25 -26 -18 0 3 11 1 20 -5 20 -13 0 0 48 23 83 16 24 15 26 -5 37 -12
6 -33 9 -46 6 -13 -4 -27 -6 -30 -5 -8 1 -24 -22 -24 -33 0 -5 11 -8 24 -8 28
0 42 -26 25 -46 -17 -21 -31 -17 -19 6 9 16 7 20 -13 25 -13 4 -27 5 -33 4 -5
-2 -20 1 -32 5 -23 8 -21 10 34 59 89 79 131 123 138 144 8 22 52 73 64 73 5
0 14 11 22 24 7 13 20 26 30 29 9 2 20 16 23 30 4 13 36 55 71 92 50 52 69 67
85 62 12 -3 21 -2 21 2 0 3 28 7 62 7 45 1 66 -3 74 -13 12 -17 50 -13 47 5
-4 15 2 15 44 0 25 -9 36 -9 44 -1 9 9 17 8 34 -3 21 -14 24 -13 39 8 9 12 16
28 16 35 0 19 24 16 66 -8 29 -16 39 -18 45 -7 7 10 11 10 21 0 16 -16 2 -29
-35 -34 -15 -2 -26 -7 -25 -13 2 -5 10 -9 17 -8 8 1 20 -5 26 -13 8 -12 38
-14 65 -4 3 1 13 1 23 0 10 -1 25 4 34 11 8 8 29 14 47 14 88 4 94 5 92 23 -1
20 -33 52 -52 52 -21 0 15 61 58 99 21 18 38 39 38 46 0 16 35 47 43 39 4 -4
5 2 3 12 -6 29 19 55 56 60 47 5 61 8 75 17 7 5 17 0 24 -12 10 -16 17 -17 38
-10 25 10 25 10 6 -10 -20 -23 -23 -80 -5 -91 6 -4 10 -11 9 -16 -1 -5 -1 -15
0 -22 1 -16 36 3 67 38 68 78 87 93 103 83 23 -14 58 19 37 36 -10 9 -12 21
-6 48 10 42 16 48 55 58 l30 7 -22 -24 c-13 -14 -23 -37 -23 -54 0 -16 -6 -41
-14 -56 -10 -20 -11 -28 -3 -31 8 -3 6 -10 -6 -24 -9 -11 -14 -22 -11 -25 3
-3 -16 -16 -41 -29 -26 -13 -51 -34 -56 -47 -5 -12 -31 -46 -59 -75 -73 -76
-77 -80 -84 -103 -9 -30 -86 -104 -108 -104 -10 0 -21 -6 -24 -14 -3 -8 -12
-12 -19 -9 -23 8 -35 -6 -26 -30 9 -22 -14 -77 -32 -77 -19 0 -50 -117 -49
-185 1 -23 12 -111 18 -140 3 -11 7 -42 10 -70 3 -27 10 -62 16 -77 5 -15 11
-49 13 -76 1 -26 6 -58 9 -70 6 -17 3 -22 -11 -23 -24 -2 -25 -2 -45 6 -13 5
-18 2 -18 -9 0 -9 7 -16 15 -16 23 0 18 -15 -9 -28 -18 -8 -23 -16 -19 -32 3
-11 11 -18 17 -15 6 3 19 8 29 11 9 4 17 10 17 14 0 5 29 39 66 77 69 72 97
114 99 150 1 36 35 65 68 59 27 -6 28 -5 21 32 -4 20 -7 45 -6 54 1 23 54 69
66 58 11 -11 63 8 70 26 3 9 -1 28 -9 43 -15 30 -14 56 5 90 12 24 15 25 40
11 25 -13 54 24 40 50 -5 10 -7 20 -3 23 3 4 -2 9 -11 13 -20 8 -21 60 -1 80
8 9 15 22 15 29 0 19 -37 38 -62 32 -17 -5 -19 -2 -14 16 3 12 6 27 6 32 0 6
16 28 36 49 28 30 35 44 32 67 -3 16 0 29 5 29 6 0 7 3 4 7 -10 9 13 34 25 27
5 -3 15 0 23 6 12 10 15 9 15 -5 0 -24 33 -15 45 13 5 12 15 22 22 22 7 0 13
5 13 10 0 6 4 10 10 10 6 0 6 -10 -1 -27 -16 -44 10 -50 46 -9 35 39 82 64
116 60 13 -1 30 -3 37 -3 7 -1 18 -13 25 -28 6 -16 18 -33 26 -39 19 -15 41
-7 34 12 -3 8 11 28 33 49 141 126 198 174 204 170 4 -3 25 8 47 24 22 16 49
32 61 35 12 4 22 11 22 16 0 5 15 14 34 20 29 9 42 8 80 -9 25 -12 49 -21 53
-21 9 0 39 60 36 71 -1 4 -4 19 -7 35 -3 16 -13 35 -23 41 -9 7 -18 27 -19 44
-3 49 -34 123 -46 111 -14 -14 -48 7 -41 24 3 9 13 10 36 3 33 -9 57 1 105 44
22 20 22 21 22 340 l0 319 -32 35 c-32 33 -88 70 -88 57 0 -3 -11 1 -25 10
-13 9 -29 16 -36 16 -6 0 -25 10 -42 22 -25 18 -48 23 -102 25 -71 3 -130 8
-130 13 0 1 -11 3 -25 5 -21 2 -60 11 -119 26 -11 3 -14 -6 -12 -37 2 -30 -2
-43 -13 -47 -18 -7 -11 -37 9 -37 12 0 25 -27 29 -60 2 -23 -25 -50 -51 -50
-16 0 -23 6 -23 20 0 13 -12 26 -35 37 -24 11 -35 23 -35 38 0 18 5 21 29 17
23 -3 29 0 34 20 13 47 8 55 -38 68 -38 11 -46 10 -60 -3 -8 -9 -15 -18 -15
-21 0 -3 -10 -17 -22 -31 -18 -20 -27 -23 -57 -18 -20 3 -52 6 -72 7 -20 1
-46 9 -56 19 -11 9 -23 14 -26 10 -4 -3 -22 -7 -39 -9 -54 -4 -102 -12 -120
-19 -11 -4 -18 -3 -18 4 0 6 -3 10 -7 9 -5 -1 -21 2 -36 7 -27 7 -28 10 -21
39 22 87 1 140 -72 182 -37 22 -71 30 -159 38 -11 1 -39 -3 -62 -10 -24 -7
-43 -10 -43 -7 0 3 -11 -2 -24 -10 -13 -9 -43 -18 -68 -21 -44 -5 -44 -5 -63
37 -12 25 -32 48 -50 57 -16 8 -35 22 -42 30 -7 8 -13 12 -13 8 0 -5 -8 0 -18
10 -15 14 -16 20 -6 36 31 46 -42 103 -145 113 -31 3 -77 17 -103 30 -27 13
-48 21 -48 18 0 -2 -12 0 -27 6 -34 13 -63 19 -129 24 -28 2 -66 13 -85 24
-40 25 -59 27 -59 6 0 -8 6 -24 13 -35 10 -17 9 -22 -3 -30 -8 -5 -26 -9 -40
-8 -33 2 -49 -8 -61 -39 -10 -27 5 -58 22 -47 5 3 9 -1 9 -10 0 -8 -6 -17 -12
-20 -10 -5 -10 -7 0 -12 6 -3 12 -18 12 -33 0 -15 6 -33 13 -40 10 -10 8 -11
-8 -5 -11 4 -27 13 -35 19 -10 9 -30 11 -62 6 -47 -8 -78 -7 -131 2 -19 3 -40
-3 -64 -20 -45 -31 -72 -27 -100 16 -27 39 -29 53 -8 45 9 -4 15 0 15 10 0 9
-8 16 -19 16 -32 0 -51 -11 -51 -30 0 -11 -4 -22 -10 -25 -5 -3 -10 -14 -10
-24 0 -24 -31 -122 -43 -139 -11 -13 -22 -8 -22 11 -1 7 -6 11 -13 9 -19 -3
-75 62 -77 90 0 3 -3 10 -7 14 -13 13 -9 34 7 34 8 0 15 5 15 10 0 6 -4 10 -9
10 -15 0 -20 51 -6 56 18 7 8 65 -15 85 -17 14 -17 16 -1 26 11 7 18 26 19 52
3 39 -1 46 -54 98 -60 60 -100 75 -121 46 -12 -16 -13 -15 -13 1 0 12 -5 16
-16 12 -21 -8 -65 4 -58 15 3 5 -6 13 -20 18 -18 8 -23 15 -19 30 4 15 1 21
-12 21 -9 0 -19 -9 -22 -19 -3 -11 -18 -24 -34 -30 -27 -9 -38 -36 -29 -76 5
-23 3 -75 -2 -81 -4 -3 -15 -1 -26 5 -16 8 -21 7 -26 -6 -5 -12 -10 -13 -17
-6 -7 7 -22 8 -40 3 -17 -5 -31 -5 -35 1 -3 5 -10 7 -15 4 -5 -4 -9 1 -9 9 0
24 -35 39 -50 21 -21 -25 -82 18 -64 46 3 5 10 7 15 4 13 -8 24 24 12 36 -5 5
-33 11 -62 14 -28 2 -56 7 -61 10 -34 21 -136 12 -193 -16 -13 -7 -19 -5 -24
8 -3 10 -14 37 -24 60 -14 33 -15 46 -6 56 7 7 17 22 24 34 15 26 -1 50 -37
57 -14 2 -29 5 -35 6 -18 4 -35 0 -34 -7 3 -20 -2 -34 -10 -29 -5 3 -12 -1
-15 -10 -10 -25 -7 -34 9 -34 9 0 18 -6 21 -14 3 -8 17 -17 31 -21 14 -3 23
-9 20 -12 -4 -3 -2 -14 3 -23 19 -36 -36 -48 -68 -16 -13 12 -13 18 -3 30 11
13 10 17 -4 22 -9 4 -21 2 -27 -4 -6 -6 -26 -8 -45 -5 -29 5 -35 3 -40 -16 -3
-11 -9 -21 -14 -21 -5 0 -8 -12 -7 -26 2 -21 7 -25 25 -21 19 3 21 1 12 -15
-7 -13 -16 -17 -34 -12 -20 5 -25 2 -25 -13 0 -11 -6 -20 -12 -20 -25 -1 -43
-8 -53 -21 -13 -17 -91 -26 -100 -12 -3 5 0 7 8 4 9 -3 21 8 34 33 13 25 27
38 42 39 24 1 61 31 61 49 0 7 20 29 45 50 25 20 43 40 40 45 -7 11 83 96 99
92 8 -1 20 11 28 28 7 16 16 30 19 30 14 0 49 39 67 75 23 47 39 184 23 195
-6 3 -13 20 -15 38 -2 17 -9 38 -15 46 -9 11 -8 15 4 20 13 5 14 8 3 20 -17
18 -28 11 -28 -17 -1 -20 -2 -20 -11 -4 -5 9 -8 21 -4 26 3 5 1 21 -5 36 -8
22 -15 26 -35 23 -16 -4 -31 2 -45 17 -18 19 -27 21 -58 15 -20 -4 -62 -6 -92
-5 -69 2 -82 -2 -78 -28 2 -16 -4 -22 -28 -27 -28 -6 -31 -5 -26 14 3 12 16
34 29 49 22 27 22 29 5 52 -12 17 -27 24 -49 25 -18 0 -33 5 -33 11 0 7 -10 9
-25 7 -37 -7 -40 8 -5 21 17 5 30 15 30 20 0 6 11 13 24 17 24 6 42 31 31 43
-3 3 -15 -1 -27 -8 -17 -11 -22 -11 -29 1 -5 7 -9 19 -9 27 0 8 -7 11 -20 8
-13 -3 -26 3 -38 17 -23 30 -66 41 -82 20z m1570 -1399 c0 -5 -5 -3 -10 5 -5
8 -10 20 -10 25 0 6 5 3 10 -5 5 -8 10 -19 10 -25z m1050 -19 c0 -2 -7 -6 -15
-10 -8 -3 -15 -1 -15 4 0 6 7 10 15 10 8 0 15 -2 15 -4z m-3905 -124 c0 -32
-3 -38 -21 -38 -36 0 -23 46 21 76 1 0 1 -17 0 -38z m-305 2 c0 -8 -19 -13
-24 -6 -3 5 1 9 9 9 8 0 15 -2 15 -3z m-692 -114 c-1 -16 -4 -30 -8 -30 -10 0
-21 41 -14 52 11 18 23 6 22 -22z m1027 -9 c3 -5 2 -12 -3 -15 -5 -3 -9 1 -9
9 0 17 3 19 12 6z m-385 -301 c4 0 10 -15 13 -32 3 -18 7 -40 9 -48 2 -8 -1
-16 -7 -17 -5 -2 -10 6 -10 16 0 10 -7 27 -16 37 -9 11 -19 27 -23 38 -5 14
-2 17 10 12 8 -3 19 -6 24 -6z m-425 -400 c3 -6 -1 -7 -9 -4 -18 7 -21 14 -7
14 6 0 13 -4 16 -10z m4430 -1711 c-5 -44 -24 -60 -20 -17 2 18 4 36 4 41 1 4
5 7 11 7 5 0 7 -14 5 -31z"/>
<path d="M4495 6809 c-10 -15 1 -23 20 -15 9 3 13 10 10 16 -8 13 -22 13 -30
-1z"/>
<path d="M5459 6737 c-7 -16 -6 -47 1 -52 11 -7 40 18 40 33 0 8 -38 25 -41
19z"/>
<path d="M4340 6721 c-8 -3 -17 -15 -18 -26 -2 -11 -10 -24 -18 -28 -17 -10
-18 -29 -3 -44 15 -15 39 -5 32 13 -3 8 5 17 20 23 14 5 27 14 30 18 9 15 -27
51 -43 44z"/>
<path d="M4738 6663 c-40 -27 -48 -43 -23 -43 8 0 15 -4 15 -9 0 -22 56 11 67
39 18 48 -2 53 -59 13z"/>
<path d="M8520 6667 c0 -19 16 -31 24 -18 3 5 -1 14 -9 21 -12 10 -15 10 -15
-3z"/>
<path d="M2968 6629 c-10 -5 -18 -7 -18 -3 0 4 -20 -14 -45 -40 -25 -26 -43
-50 -41 -55 3 -5 -10 -16 -29 -25 -19 -9 -35 -21 -35 -26 0 -4 -15 -12 -32
-15 -18 -4 -36 -12 -39 -17 -7 -12 -89 -16 -89 -5 0 9 -32 9 -54 1 -9 -3 -16
-13 -16 -21 0 -8 -13 -19 -29 -24 -16 -6 -31 -19 -34 -30 -4 -16 -9 -18 -24
-11 -26 14 -42 5 -58 -34 -8 -19 -21 -34 -29 -34 -9 0 -16 -8 -16 -19 0 -10
-7 -21 -15 -25 -8 -3 -15 -12 -15 -20 0 -9 -6 -13 -14 -10 -15 6 -36 -24 -29
-42 2 -7 -7 -9 -25 -6 -20 2 -31 -1 -35 -11 -9 -23 4 -57 21 -57 13 0 13 -2
-3 -14 -11 -8 -16 -20 -12 -29 4 -10 2 -16 -5 -14 -7 1 -14 -7 -16 -18 -6 -35
-45 -125 -54 -125 -4 0 -8 -4 -8 -10 0 -16 -40 -51 -50 -45 -17 10 -11 -27 7
-47 27 -30 24 -45 -13 -73 -21 -16 -34 -35 -34 -48 0 -12 -9 -28 -20 -35 -20
-12 -28 -56 -11 -66 5 -3 7 -16 4 -29 -7 -34 -25 -67 -34 -62 -15 10 -38 -8
-44 -35 -10 -48 4 -100 31 -111 13 -4 24 -12 23 -16 -3 -21 2 -33 15 -33 8 0
17 -11 20 -25 4 -14 13 -25 22 -25 8 0 12 5 9 10 -3 6 -1 10 5 10 6 0 8 -10 5
-23 -6 -20 -1 -25 37 -37 24 -8 49 -20 57 -28 9 -8 17 -10 23 -4 6 6 25 6 46
1 20 -4 40 -6 44 -3 4 3 8 0 8 -5 0 -27 46 1 50 30 4 27 0 39 -14 39 -8 0 -26
15 -39 33 -77 102 -94 237 -43 332 14 27 26 54 26 60 0 5 23 49 51 98 28 48
48 91 45 94 -3 4 6 22 21 42 15 19 27 47 28 61 0 14 6 24 13 23 11 -3 16 10
13 30 -1 4 4 7 11 6 29 -3 40 2 34 16 -3 9 0 15 9 15 16 0 38 38 49 82 3 15
15 30 26 33 11 4 27 18 35 33 8 15 14 23 15 19 0 -5 7 -2 15 5 34 31 43 36 49
30 4 -3 10 -2 14 3 4 6 51 33 105 60 53 27 97 53 97 57 0 5 4 8 10 8 17 0 110
71 110 85 0 7 7 18 16 26 8 7 13 20 11 29 -2 10 -1 23 3 31 13 22 -16 78 -45
89 -33 12 -45 12 -67 -1z"/>
<path d="M4837 6573 c-13 -4 -16 -11 -10 -31 6 -25 23 -45 31 -37 6 6 9 66 3
69 -3 1 -14 1 -24 -1z"/>
<path d="M8060 6568 c-24 -8 -58 -47 -43 -49 5 0 18 -2 31 -3 27 -3 45 16 40
42 -2 15 -8 17 -28 10z"/>
<path d="M4685 6544 c-16 -12 -17 -14 -2 -20 10 -3 24 -4 32 -1 8 4 17 2 20
-3 12 -20 67 2 59 23 -6 16 -87 17 -109 1z"/>
<path d="M4622 6518 c5 -15 37 -18 41 -3 1 6 -9 12 -22 13 -16 3 -22 -1 -19
-10z"/>
<path d="M7372 6389 c-23 -20 -42 -44 -42 -52 0 -9 -4 -18 -10 -22 -5 -3 -9
-26 -8 -50 0 -25 -4 -51 -9 -57 -14 -20 -2 -61 26 -88 9 -8 22 -27 29 -41 8
-14 32 -34 54 -44 40 -17 42 -17 55 0 7 11 13 25 13 33 0 11 3 12 13 4 9 -8
28 -7 67 5 49 14 54 14 65 -1 13 -17 36 -21 49 -9 3 4 17 8 29 10 12 2 27 9
32 17 6 7 19 16 30 20 28 8 55 59 43 79 -6 12 -3 20 12 29 11 7 20 17 20 23 0
13 -36 45 -50 45 -6 0 -10 4 -10 8 0 16 -55 40 -75 32 -20 -7 -55 8 -55 24 0
4 -14 21 -32 36 -31 27 -48 30 -48 9 0 -6 -6 -17 -14 -25 -8 -8 -13 -25 -10
-38 4 -23 2 -23 -21 -13 -14 7 -25 17 -25 23 0 5 -13 20 -30 32 -17 13 -27 28
-24 36 11 27 -32 13 -74 -25z m308 -114 c0 -3 -9 -15 -20 -27 -21 -23 -28 -7
-7 17 12 14 27 20 27 10z"/>
<path d="M8276 6403 c-7 -17 12 -36 26 -27 4 3 8 14 8 25 0 23 -25 25 -34 2z"/>
<path d="M3898 6356 c-7 -7 -22 -11 -33 -9 -18 4 -18 2 5 -17 22 -19 25 -20
36 -6 7 10 18 14 28 10 25 -9 51 3 38 19 -15 17 -59 19 -74 3z"/>
<path d="M7222 6314 c-11 -21 -19 -110 -11 -118 3 -3 14 -3 26 0 14 4 22 16
27 42 3 20 2 39 -2 42 -4 3 -12 16 -18 30 -11 24 -11 24 -22 4z"/>
<path d="M7891 6256 c-7 -8 -14 -34 -17 -59 -5 -41 -4 -45 28 -65 58 -38 71
-47 90 -64 17 -17 46 -23 93 -19 33 3 85 31 86 46 3 28 4 33 12 41 4 4 7 10 7
13 0 10 -90 34 -126 34 -25 0 -30 4 -26 19 2 10 0 18 -4 19 -5 0 -26 2 -46 5
-20 2 -39 0 -43 -6 -10 -17 -23 -11 -18 8 6 26 -20 47 -36 28z"/>
<path d="M3863 6228 l-22 -21 22 -39 c12 -21 26 -37 31 -35 10 3 18 75 10 100
-7 22 -15 22 -41 -5z"/>
<path d="M3704 6029 c-3 -6 1 -18 10 -27 15 -15 18 -15 26 -2 5 9 5 19 -2 27
-13 16 -25 17 -34 2z"/>
<path d="M5986 5961 c-7 -11 18 -33 27 -24 4 3 7 12 7 20 0 15 -26 18 -34 4z"/>
<path d="M7518 5943 c-20 -5 -25 -52 -8 -83 10 -18 12 -18 38 -3 27 15 32 36
23 86 -1 7 -24 8 -53 0z"/>
<path d="M7205 5929 c-4 -5 0 -18 9 -28 9 -10 16 -23 16 -29 0 -6 9 -16 19
-22 29 -15 32 8 8 53 -21 37 -40 47 -52 26z"/>
<path d="M3904 5916 c-23 -17 -15 -28 23 -30 15 -1 33 -4 38 -8 6 -4 16 2 23
12 10 16 8 20 -9 25 -11 4 -23 4 -26 1 -4 -3 -11 -1 -18 4 -8 6 -18 5 -31 -4z"/>
<path d="M4002 5893 c-10 -4 -10 -8 -1 -19 16 -20 48 -18 45 3 -3 17 -21 24
-44 16z"/>
<path d="M7582 5863 c-17 -3 -30 -18 -43 -49 -13 -29 -26 -44 -38 -44 -25 0
-34 -25 -15 -41 12 -10 20 -10 34 -1 18 11 48 7 60 -8 9 -11 74 -26 110 -26
33 1 35 3 37 38 2 28 -5 46 -30 77 -29 36 -68 63 -85 60 -4 -1 -18 -4 -30 -6z"/>
<path d="M3470 5775 c-7 -8 -9 -23 -6 -32 6 -14 9 -15 15 -4 5 8 26 14 50 14
47 0 52 9 16 25 -35 16 -60 15 -75 -3z"/>
<path d="M3523 5713 c-20 -7 -15 -19 11 -31 23 -10 36 -7 36 9 0 12 -33 27
-47 22z"/>
<path d="M3694 5676 c-6 -7 -16 -22 -23 -34 -9 -18 -8 -23 11 -36 27 -19 58
-21 59 -3 1 6 2 19 3 27 1 16 -23 60 -33 60 -3 -1 -11 -6 -17 -14z"/>
<path d="M9948 5338 c-37 -34 -56 -64 -52 -85 1 -7 2 -20 3 -28 1 -13 9 -15
39 -9 20 4 43 11 50 17 13 11 17 137 4 137 -5 0 -24 -15 -44 -32z"/>
<path d="M8764 5238 c1 -7 5 -19 10 -26 11 -18 31 1 23 22 -7 19 -36 22 -33 4z"/>
<path d="M8830 5221 c0 -12 6 -21 15 -21 8 0 15 4 15 9 0 5 -7 14 -15 21 -13
10 -15 9 -15 -9z"/>
<path d="M8880 5190 c0 -5 7 -10 16 -10 8 0 12 5 9 10 -3 6 -10 10 -16 10 -5
0 -9 -4 -9 -10z"/>
<path d="M1802 4973 c-31 -27 -38 -97 -13 -122 27 -27 58 -19 111 27 24 22 27
29 18 46 -15 27 -34 46 -47 46 -6 0 -11 5 -11 10 0 16 -36 11 -58 -7z"/>
<path d="M2430 4953 c1 -14 27 -43 39 -43 16 0 13 15 -7 33 -20 18 -32 22 -32
10z"/>
<path d="M1410 4521 c0 -5 6 -14 14 -20 16 -13 32 2 21 19 -8 12 -35 13 -35 1z"/>
<path d="M998 4282 c-21 -4 -22 -12 -5 -36 13 -17 14 -17 30 7 17 27 9 37 -25
29z"/>
<path d="M8992 3461 c-17 -17 -32 -37 -32 -45 0 -9 -5 -16 -12 -16 -8 0 -9 -3
-1 -11 7 -7 21 -3 47 15 20 13 41 26 47 28 11 4 2 58 -10 58 -4 0 -21 -13 -39
-29z"/>
<path d="M9105 3031 c-8 -14 13 -55 37 -70 29 -18 35 -5 14 29 -9 17 -14 30
-9 30 9 0 -19 20 -29 20 -4 0 -9 -4 -13 -9z"/>
<path d="M96 3023 c-4 -4 -11 -8 -14 -8 -4 -1 -18 -7 -32 -15 -14 -7 -27 -13
-30 -12 -3 1 -8 -11 -12 -26 -11 -39 6 -47 107 -47 l88 0 3 33 c4 37 -9 56
-46 64 -14 3 -32 8 -41 12 -8 4 -19 3 -23 -1z"/>
<path d="M9200 2976 c0 -17 47 -52 57 -43 7 8 -14 35 -39 48 -14 7 -18 6 -18
-5z"/>
<path d="M8385 2460 c-3 -6 0 -13 9 -16 11 -4 12 -12 5 -34 -6 -16 -17 -31
-25 -34 -9 -3 -12 -10 -9 -16 9 -15 25 -12 25 4 0 8 6 16 14 19 29 11 37 43
17 66 -21 24 -27 26 -36 11z"/>
<path d="M8306 2288 c-8 -32 -7 -38 5 -38 6 0 9 6 6 14 -3 8 1 17 9 20 9 3 12
10 9 16 -10 17 -22 11 -29 -12z"/>
<path d="M8246 2211 c-16 -17 -25 -34 -21 -41 8 -12 45 20 45 40 0 5 5 10 10
10 6 0 10 5 10 10 0 18 -15 11 -44 -19z"/>
<path d="M8112 2111 c-18 -14 -32 -32 -32 -39 0 -22 26 -13 59 22 41 43 19 57
-27 17z"/>
<path d="M8020 2059 c0 -6 -9 -8 -20 -4 -11 3 -20 3 -20 -2 -1 -4 -16 -26 -35
-47 -26 -30 -38 -36 -48 -28 -10 8 -19 3 -40 -23 -23 -29 -36 -65 -23 -65 2 0
20 16 41 36 21 19 43 33 51 30 7 -3 14 -2 16 2 5 11 81 68 101 75 24 9 22 37
-3 37 -11 0 -20 -5 -20 -11z"/>
<path d="M7906 1914 c-8 -21 -3 -26 18 -18 9 4 15 11 13 17 -6 18 -24 19 -31
1z"/>
<path d="M7870 1891 c0 -6 5 -13 10 -16 6 -3 10 1 10 9 0 9 -4 16 -10 16 -5 0
-10 -4 -10 -9z"/>
</g>
</svg>
