<?xml version="1.0" standalone="no"?>
<!DOCTYPE svg PUBLIC "-//W3C//DTD SVG 20010904//EN"
 "http://www.w3.org/TR/2001/REC-SVG-20010904/DTD/svg10.dtd">
<svg version="1.0" xmlns="http://www.w3.org/2000/svg"
 width="700.000000pt" height="700.000000pt" viewBox="0 0 700.000000 700.000000"
 preserveAspectRatio="xMidYMid meet">
<metadata>
Created by potrace 1.14, written by Peter Selinger 2001-2017
</metadata>
<g transform="translate(0.000000,700.000000) scale(0.100000,-0.100000)"
fill="#000000" stroke="none">
<path d="M3349 6176 c-2 -2 -42 -6 -89 -10 -91 -7 -114 -10 -230 -31 -180 -33
-403 -99 -537 -161 -349 -159 -567 -307 -814 -553 -428 -429 -685 -969 -746
-1571 -9 -93 -9 -422 1 -510 46 -419 183 -805 410 -1152 194 -298 490 -587
795 -778 332 -207 733 -343 1116 -377 105 -10 367 -10 478 -1 318 27 657 125
943 274 103 53 291 167 322 194 9 8 44 35 77 60 136 101 301 263 440 431 151
183 320 486 408 729 78 217 115 377 142 620 11 106 13 442 2 515 -3 17 -8 57
-12 90 -36 312 -173 702 -344 980 -50 81 -166 253 -180 265 -3 3 -24 27 -46
55 -96 120 -247 265 -430 413 -24 19 -220 151 -255 171 -243 141 -602 273
-825 306 -23 3 -50 7 -62 9 -12 3 -43 7 -70 11 -26 4 -59 9 -73 11 -30 6 -416
15 -421 10z m1656 -1487 c-4 -12 0 -16 17 -15 14 1 27 -8 35 -24 11 -22 10
-26 -7 -32 -11 -4 -20 -12 -20 -18 0 -5 -10 -10 -23 -10 -18 0 -23 -5 -23 -22
1 -16 -5 -23 -18 -23 -30 0 -29 -20 2 -31 36 -14 48 -50 21 -65 -11 -5 -17
-14 -14 -19 3 -5 21 0 39 11 20 11 37 16 40 10 3 -5 15 -7 26 -4 11 3 27 2 36
-1 15 -6 15 -9 -4 -29 -18 -19 -19 -25 -7 -47 7 -14 11 -28 8 -33 -2 -4 3 -29
11 -55 9 -26 16 -51 16 -57 1 -5 8 -20 16 -32 13 -21 13 -23 -3 -23 -23 0 -39
-27 -38 -62 1 -16 -3 -28 -8 -28 -5 0 -7 -8 -4 -19 2 -10 1 -25 -4 -33 -6 -10
-2 -21 11 -33 11 -10 20 -27 20 -37 0 -23 29 -36 41 -17 7 11 13 10 27 -9 11
-14 26 -22 38 -20 15 2 19 -3 19 -25 0 -29 30 -61 47 -51 4 3 11 -2 15 -11 3
-10 0 -20 -6 -24 -18 -11 -3 -58 20 -64 18 -5 19 -8 7 -26 -11 -19 -10 -24 13
-44 31 -27 47 -97 22 -97 -8 0 -27 8 -41 19 -15 10 -38 22 -52 26 -14 4 -36
16 -49 26 -13 10 -27 17 -31 14 -11 -7 -82 64 -102 102 -9 18 -14 45 -12 62 3
17 -3 48 -14 73 -24 53 -38 102 -41 138 0 8 -16 27 -35 42 -25 20 -34 23 -32
11 2 -9 9 -21 18 -27 8 -6 18 -32 22 -58 6 -39 4 -48 -8 -48 -8 0 -18 5 -21
10 -3 6 -14 10 -25 10 -24 0 -33 -40 -21 -88 6 -20 13 -50 16 -65 4 -22 10
-27 25 -22 23 7 26 -7 5 -28 -8 -8 -12 -17 -9 -20 9 -8 -27 -57 -37 -51 -5 3
-7 10 -4 15 9 14 -3 11 -31 -7 -14 -10 -23 -22 -20 -29 2 -7 -7 -24 -20 -38
-13 -15 -25 -30 -25 -34 -1 -5 -5 -7 -9 -6 -9 3 -59 -53 -61 -65 0 -4 -1 -70
-3 -147 -1 -77 -6 -148 -10 -158 -7 -16 -5 -16 20 -7 21 8 30 8 33 -1 2 -8 6
-7 12 2 8 12 10 12 18 0 13 -20 29 -5 24 22 -3 15 1 26 10 30 18 7 98 -3 93
-12 -2 -3 2 -12 10 -19 11 -10 14 -10 14 1 0 8 -7 20 -15 27 -9 7 -13 21 -10
31 4 11 0 19 -9 21 -10 2 -12 8 -8 15 9 14 45 -10 90 -59 14 -16 29 -28 34
-28 4 0 26 -13 49 -29 22 -17 46 -32 52 -34 8 -2 6 -9 -5 -21 -17 -16 -17 -19
3 -58 11 -22 22 -38 25 -35 7 7 78 -20 82 -31 1 -5 -5 -9 -15 -8 -12 0 -18 -6
-19 -19 -1 -11 -2 -24 -3 -29 -2 -14 -41 25 -41 41 0 7 -5 13 -10 13 -6 0 -15
11 -20 25 -5 14 -16 25 -24 25 -8 0 -17 8 -20 18 -3 9 -27 39 -52 66 -33 34
-49 44 -54 35 -10 -16 -3 -36 30 -79 45 -60 57 -84 55 -109 -1 -13 3 -49 10
-80 6 -31 10 -102 8 -159 -3 -116 -16 -147 -66 -160 -21 -5 -33 -16 -37 -32
-9 -37 -31 -38 -24 -1 6 26 1 36 -25 61 -30 29 -31 31 -15 55 9 14 23 25 31
25 14 0 14 10 -2 88 -4 17 -12 32 -17 32 -5 0 -7 8 -3 19 3 10 -1 23 -9 30
-11 9 -17 6 -30 -13 -9 -14 -16 -29 -16 -34 0 -5 -11 -18 -25 -30 l-26 -22
-23 25 c-25 27 -73 33 -121 15 -20 -8 -27 -7 -31 5 -3 8 -33 37 -67 64 -57 47
-64 50 -102 44 -73 -10 -151 -74 -106 -86 17 -4 19 -14 17 -80 -2 -86 -21
-120 -66 -116 -14 1 -33 -2 -42 -6 -10 -4 -25 -5 -33 -1 -8 3 -21 -2 -27 -10
-48 -60 -105 -94 -155 -94 -16 0 -33 4 -39 10 -17 17 -98 22 -127 7 -34 -18
-73 -11 -91 15 -13 18 -67 37 -106 38 -8 0 -21 -10 -29 -21 -10 -18 -10 -26
-1 -45 11 -19 10 -25 -3 -38 -22 -22 -102 -21 -125 2 -32 31 -99 18 -165 -32
-18 -14 -36 -25 -42 -27 -5 -1 -16 -4 -24 -7 -8 -3 -19 2 -26 12 -7 9 -19 14
-28 11 -14 -6 -38 14 -79 64 -13 15 -25 19 -46 15 -19 -4 -34 -1 -45 10 -10
11 -18 12 -22 6 -8 -14 -35 6 -35 26 0 7 -5 25 -12 41 -6 15 -13 37 -15 48 -2
11 -8 22 -13 23 -6 2 -10 10 -10 18 0 8 -7 17 -15 20 -12 5 -13 9 -4 20 10 12
8 13 -7 7 -10 -4 -29 -12 -42 -19 -31 -16 -67 -7 -51 12 11 13 2 19 -23 15 -5
0 -8 3 -8 8 0 5 -9 11 -19 14 -15 3 -18 11 -14 27 6 21 -10 40 -34 41 -5 0
-14 5 -20 11 -9 7 -13 7 -13 0 0 -14 -200 -5 -214 9 -19 18 -28 9 -22 -21 5
-29 4 -30 -22 -24 -15 4 -24 3 -20 -1 10 -10 -11 -37 -23 -29 -13 8 -11 -4 6
-29 8 -13 11 -28 6 -36 -13 -21 -83 -1 -96 27 -5 12 -17 22 -27 22 -9 0 -20 5
-24 11 -3 6 -17 8 -30 5 -14 -4 -24 -2 -24 4 0 5 -8 10 -17 10 -13 0 -19 9
-20 30 -2 30 -36 74 -48 62 -4 -4 -11 1 -16 10 -7 12 -19 15 -51 11 -24 -3
-48 -12 -54 -19 -16 -20 -34 -17 -34 6 0 18 -3 19 -21 10 -59 -32 -78 -69 -53
-102 14 -17 17 -78 4 -78 -5 0 -7 -7 -4 -15 4 -8 2 -15 -2 -16 -5 0 -19 -2
-31 -5 -12 -2 -24 0 -27 5 -3 5 -21 1 -40 -8 -27 -12 -33 -21 -30 -37 3 -12
-2 -28 -12 -38 -12 -12 -17 -32 -16 -62 1 -24 -1 -44 -5 -45 -5 0 -18 -2 -29
-4 -17 -4 -25 4 -38 38 -9 24 -16 50 -16 59 0 9 -13 29 -30 45 -16 15 -30 36
-30 45 0 10 -5 18 -12 18 -6 0 -9 3 -6 6 3 3 -5 17 -19 32 -13 15 -30 34 -37
42 -7 8 -16 38 -20 65 -3 28 -10 51 -15 53 -16 5 1 43 18 40 23 -3 61 12 61
24 0 6 11 8 27 3 22 -5 25 -4 15 8 -7 8 -9 17 -5 20 10 11 48 8 60 -4 7 -7 15
-2 27 15 9 15 23 26 31 26 13 0 12 7 -5 40 -11 21 -20 44 -20 49 0 6 -11 22
-25 37 -17 18 -22 31 -16 37 6 6 7 22 4 37 -3 15 0 31 6 34 13 9 15 46 2 46
-5 0 -17 7 -25 15 -23 24 0 57 34 50 23 -5 25 -3 27 36 1 29 8 46 22 56 22 15
28 39 12 45 -5 2 -11 17 -14 35 -4 28 1 39 43 82 43 45 61 57 73 49 2 -2 11 3
19 9 12 10 19 9 36 -7 l21 -20 -6 35 c-5 32 -3 35 18 36 13 1 47 3 74 4 28 2
53 3 58 4 4 0 7 11 7 24 0 12 9 30 20 40 11 9 20 23 20 30 0 8 11 20 25 27 14
7 34 28 45 47 12 20 27 33 40 33 11 0 20 3 21 8 6 62 39 78 100 46 24 -12 28
-18 19 -28 -8 -10 -7 -15 5 -20 8 -3 15 -14 15 -24 0 -10 4 -22 9 -27 5 -6 12
-38 15 -71 6 -58 5 -63 -19 -82 -40 -32 -75 -17 -105 45 -14 29 -29 52 -34 53
-4 0 -6 -6 -3 -14 3 -8 -3 -26 -14 -39 -10 -14 -19 -30 -19 -36 0 -6 -4 -11
-8 -11 -10 0 -8 -42 2 -58 12 -19 27 -3 20 22 -4 16 0 25 11 29 11 5 17 -1 22
-23 7 -40 22 -48 42 -23 17 22 62 25 96 6 26 -14 45 -6 45 18 0 10 4 19 9 19
10 0 27 39 23 53 -4 14 15 7 32 -12 19 -21 18 -55 -2 -57 -6 -1 -16 -2 -22 -3
-5 0 -10 -11 -10 -22 0 -19 4 -21 33 -14 58 14 160 11 165 -4 3 -8 0 -11 -7
-7 -6 4 -11 3 -11 -3 0 -5 25 -13 56 -17 49 -6 55 -9 51 -26 -5 -18 -4 -18 16
-5 22 15 25 50 7 72 -13 15 3 36 19 26 7 -5 12 -11 12 -15 -3 -23 1 -36 12
-36 14 0 97 -93 97 -109 0 -5 5 -13 12 -17 7 -4 8 -3 4 4 -4 7 -2 12 3 12 6 0
3 15 -6 36 -11 21 -14 38 -8 42 6 4 11 18 13 32 2 14 13 34 26 45 12 11 30 32
39 47 15 24 20 26 47 17 33 -12 36 -22 15 -59 -17 -30 -19 -50 -5 -50 6 0 9 3
8 8 -2 4 7 18 19 31 14 15 20 32 17 49 -3 21 -2 23 6 12 12 -19 13 -57 0 -65
-10 -6 -2 -36 14 -47 20 -14 28 -8 12 8 -9 8 -16 22 -16 31 0 13 2 13 16 2 15
-12 16 -11 10 9 -10 31 18 29 51 -4 26 -27 45 -26 23 1 -13 15 -20 73 -10 77
3 1 26 2 53 3 46 2 74 14 51 22 -24 8 8 60 50 82 23 12 52 28 66 36 19 11 26
11 32 2 6 -9 11 -7 19 6 5 9 17 17 26 17 10 0 14 6 10 20 -7 29 25 65 49 56
12 -6 15 -10 7 -13 -21 -8 -15 -22 7 -16 14 4 20 0 20 -10 0 -15 3 -15 28 0
26 15 30 15 54 -1 36 -24 44 -63 20 -95 -11 -15 -23 -37 -27 -51 -4 -13 -14
-30 -22 -38 -8 -8 -11 -17 -8 -20 7 -7 45 33 45 48 0 9 30 15 54 11 4 -1 13 2
20 7 18 15 66 23 66 12 0 -12 40 -13 58 -1 8 5 12 21 10 37 -3 25 0 29 20 26
13 -2 29 2 37 8 10 8 20 5 42 -16 15 -14 27 -31 26 -38 -4 -15 53 -49 67 -41
7 4 7 12 0 25 -16 30 -12 41 14 34 19 -4 26 -1 31 15 3 12 13 21 22 21 9 0 21
8 28 17 11 15 10 20 -5 33 -27 24 -19 50 24 74 36 21 37 21 51 2 14 -19 15
-19 15 8 0 15 6 33 13 40 14 15 40 9 31 -6 -5 -7 3 -9 22 -4 16 3 36 8 44 10
8 1 21 16 29 32 28 60 69 82 98 53 17 -17 39 -4 47 25 4 15 16 36 27 47 15 15
20 30 17 50 -3 20 0 29 9 29 8 0 12 -4 9 -9 -10 -16 21 -20 41 -6 16 13 16 16
3 25 -8 5 -23 10 -32 10 -19 0 -25 25 -8 35 6 4 17 22 25 41 14 35 61 83 81
84 5 0 23 14 39 30 16 17 33 30 38 30 4 0 15 7 23 15 10 10 21 12 38 6 12 -5
28 -6 35 -2 9 6 7 10 -8 14 -27 7 -19 33 18 64 24 21 27 22 39 6 6 -9 10 -24
7 -34z m-330 -77 c-2 -9 -4 -23 -4 -31 -1 -11 -4 -11 -16 -1 -18 15 -19 32 -3
48 15 15 27 7 23 -16z m-1191 -348 c25 -10 19 -43 -9 -54 -14 -5 -25 -14 -25
-20 0 -6 -4 -9 -9 -6 -5 3 -7 20 -5 37 6 48 14 56 48 43z m756 2 c0 -12 -34
-36 -51 -36 -26 0 -24 14 4 28 23 11 47 15 47 8z m-126 -57 c-3 -5 -10 -7 -15
-3 -5 3 -7 10 -3 15 3 5 10 7 15 3 5 -3 7 -10 3 -15z m44 4 c-4 -22 -22 -20
-26 1 -2 10 3 16 13 16 10 0 15 -7 13 -17z m-630 -42 c5 -30 -8 -42 -35 -35
-44 12 -39 67 6 61 18 -3 27 -10 29 -26z m618 11 c16 -10 16 -11 2 -12 -9 0
-20 -9 -23 -20 -3 -11 -11 -20 -16 -20 -24 0 -49 22 -49 44 0 19 5 22 33 21
18 -1 42 -7 53 -13z m-546 -57 c0 -12 -49 -39 -57 -31 -2 2 -1 20 2 40 7 34 7
35 31 19 13 -8 24 -21 24 -28z m625 -4 c3 -6 -3 -15 -14 -21 -21 -11 -37 2
-26 20 8 13 32 13 40 1z m-1095 -68 c0 -2 -5 -13 -10 -24 -8 -14 -22 -19 -53
-19 -23 0 -53 -7 -67 -15 -14 -8 -34 -18 -45 -24 -12 -5 -27 -16 -34 -25 -7
-9 -19 -16 -25 -16 -6 0 -24 -14 -40 -30 -22 -23 -30 -40 -31 -72 -1 -46 -14
-51 -47 -21 -13 11 -15 20 -8 33 7 13 5 21 -5 30 -16 13 -9 40 10 40 7 0 20
11 31 24 10 14 22 23 26 20 4 -3 11 2 14 10 3 9 13 16 20 16 8 0 17 7 20 15 4
8 12 15 20 15 8 0 14 7 14 16 0 8 5 12 10 9 6 -4 17 -1 25 5 8 7 15 10 15 7 0
-3 14 -2 30 3 18 5 30 5 30 -1 0 -14 32 -10 53 6 17 12 47 11 47 -2z m2020
-60 c-1 -24 -2 -26 -11 -10 -5 9 -7 22 -4 27 10 17 15 11 15 -17z m225 -44
c-7 -11 -35 -12 -35 -1 0 4 9 8 20 9 11 1 18 -2 15 -8z m-2715 -159 c0 -13 -7
-20 -20 -20 -19 0 -27 20 -13 33 13 14 33 6 33 -13z m-1044 -46 c7 -27 -1 -54
-15 -54 -17 0 -62 73 -50 81 21 13 59 -3 65 -27z m3784 -225 c0 -12 -5 -19
-12 -16 -13 4 -18 25 -10 40 6 13 22 -4 22 -24z m57 -231 c-3 -8 -6 -5 -6 6
-1 11 2 17 5 13 3 -3 4 -12 1 -19z m-647 -23 c0 -8 -7 -15 -15 -15 -16 0 -20
12 -8 23 11 12 23 8 23 -8z m646 -72 c-11 -11 -19 6 -11 24 8 17 8 17 12 0 3
-10 2 -21 -1 -24z m-24 -95 c-5 -21 -6 -21 -12 -2 -8 21 -3 37 10 29 4 -3 6
-15 2 -27z m-20 -70 c-7 -7 -12 -8 -12 -2 0 14 12 26 19 19 2 -3 -1 -11 -7
-17z m48 8 c0 -3 -4 -8 -10 -11 -5 -3 -10 -1 -10 4 0 6 5 11 10 11 6 0 10 -2
10 -4z"/>
<path d="M3102 3687 c-6 -7 -14 -28 -17 -47 -3 -18 -8 -36 -10 -40 -2 -3 0
-12 5 -20 16 -26 -50 -103 -82 -96 -24 6 -23 -11 2 -24 16 -9 24 -7 36 5 8 8
22 15 30 15 8 0 13 4 10 9 -3 5 0 14 8 20 8 7 12 20 9 31 -6 24 32 47 52 30 8
-6 11 -19 8 -27 -4 -11 -2 -14 5 -9 30 18 -2 56 -47 56 -25 0 -25 -2 -5 56 16
48 15 64 -4 41z"/>
</g>
</svg>
